# xmcd
#
# Track frame offsets:
#	150
#	12490
#	26239
#	41632
#	53121
#	70763
#	84392
#	98345
#	111376
#	128676
#	146377
#
# Disc length: 2128 seconds
#
# Revision: 1
# Processed by: cddbd v1.5.2PL0 Copyright (c) Steve Scherf et al.
# Submitted via: audiograbber 1.83.01
#
DISCID=8c084e0b
DTITLE=Danni Leigh - Masquerade Of A Fool
DYEAR=2007
DGENRE=Country
TTITLE0=Quarter Over You
TTITLE1=I Thought Forever Was A Long Time
TTITLE2=History Will Decide
TTITLE3=I Can Help You Find Your Heart
TTITLE4=Masquerade Of A Fool
TTITLE5=Shame On Me
TTITLE6=So Called Friend
TTITLE7=Damned If I Do
TTITLE8=Was It Worth It To You
TTITLE9=Day By Day
TTITLE10=Unfinished Kiss
EXTD=
EXTT0=
EXTT1=
EXTT2=
EXTT3=
EXTT4=
EXTT5=
EXTT6=
EXTT7=
EXTT8=
EXTT9=
EXTT10=
PLAYORDER=
